<svg width="52" height="22" viewBox="0 0 52 22" fill="none" xmlns="http://www.w3.org/2000/svg" xmlns:xlink="http://www.w3.org/1999/xlink">
<path d="M1.9,-0.2C1.237,-0.697 0.297,-0.563 -0.2,0.1C-0.697,0.763 -0.563,1.703 0.1,2.2L1.9,-0.2ZM25,19L24.1,20.2C24.633,20.6 25.367,20.6 25.9,20.2L25,19ZM49.9,2.2C50.563,1.703 50.697,0.763 50.2,0.1C49.703,-0.563 48.763,-0.697 48.1,-0.2L49.9,2.2ZM0.1,2.2L24.1,20.2L25.9,17.8L1.9,-0.2L0.1,2.2ZM25.9,20.2L49.9,2.2L48.1,-0.2L24.1,17.8L25.9,20.2Z" transform="rotate(-180 25 10)" fill="#FFFFFF"/>
</svg>
